<?xml version="1.0" standalone="no"?>
<!DOCTYPE svg PUBLIC "-//W3C//DTD SVG 20010904//EN"
 "http://www.w3.org/TR/2001/REC-SVG-20010904/DTD/svg10.dtd">
<svg version="1.0" xmlns="http://www.w3.org/2000/svg"
 width="700.000000pt" height="700.000000pt" viewBox="0 0 700.000000 700.000000"
 preserveAspectRatio="xMidYMid meet">
<metadata>
Created by potrace 1.14, written by Peter Selinger 2001-2017
</metadata>
<g transform="translate(0.000000,700.000000) scale(0.100000,-0.100000)"
fill="#000000" stroke="none">
<path d="M3297 6409 c-839 -57 -1621 -483 -2131 -1163 -712 -948 -775 -2242
-159 -3258 399 -656 1050 -1136 1788 -1317 259 -63 437 -84 710 -84 384 1 719
64 1064 200 911 359 1590 1166 1786 2121 79 383 79 801 0 1184 -142 691 -539
1315 -1108 1742 -455 341 -988 537 -1562 576 -167 11 -216 11 -388 -1z m563
-1117 l0 -247 102 -35 c116 -39 240 -110 328 -188 158 -140 269 -360 287 -570
l6 -72 -249 2 -249 3 -7 60 c-20 186 -132 321 -311 377 -64 20 -93 23 -252 23
-143 0 -193 -4 -245 -19 -155 -43 -271 -126 -325 -233 -27 -52 -30 -68 -30
-153 0 -83 3 -101 27 -145 73 -140 251 -236 633 -340 94 -25 217 -62 274 -81
464 -158 707 -380 787 -719 23 -95 23 -297 1 -388 -54 -218 -201 -393 -425
-506 -73 -37 -247 -97 -309 -107 l-43 -7 0 -243 0 -244 -340 0 -340 0 0 245
c0 188 -3 246 -12 249 -232 68 -354 122 -471 208 -132 98 -248 250 -298 394
-26 74 -49 178 -49 227 l0 37 248 0 247 0 12 -62 c35 -183 163 -315 366 -377
215 -66 547 -44 707 46 147 83 222 227 200 383 -20 144 -114 259 -279 344
-113 58 -189 84 -417 145 -431 114 -661 225 -833 400 -88 90 -141 174 -178
286 -25 73 -27 93 -28 240 0 150 2 165 28 240 97 277 355 484 715 575 l42 11
0 244 0 245 340 0 340 0 0 -248z"/>
</g>
</svg>
